<svg xmlns="http://www.w3.org/2000/svg" viewBox="0 0 64 64" role="img" aria-label="Banano X">
  <defs>
    <linearGradient id="g" x1="12" y1="8" x2="52" y2="56" gradientUnits="userSpaceOnUse">
      <stop stop-color="#ffe566"/>
      <stop offset="0.55" stop-color="#f5d041"/>
      <stop offset="1" stop-color="#c9a227"/>
    </linearGradient>
    <filter id="glow" x="-40%" y="-40%" width="180%" height="180%">
      <feGaussianBlur stdDeviation="1.6" result="b"/>
      <feMerge>
        <feMergeNode in="b"/>
        <feMergeNode in="SourceGraphic"/>
      </feMerge>
    </filter>
  </defs>
  <rect width="64" height="64" rx="16" fill="#030806"/>
  <circle cx="32" cy="32" r="26" fill="#0a1610" stroke="rgba(245,208,65,0.28)" stroke-width="1.5"/>
  <!-- stylized banana -->
  <path
    filter="url(#glow)"
    fill="url(#g)"
    d="M18.5 42c1.2-9.5 6.2-16.8 14.2-20.2 3.4-1.4 7.1-1.7 10.8-1.1.9.15 1.3 1.2.75 1.9-1.6 2-2.7 4.3-3.1 7.1-.7 5.1.5 10.2 3.4 14.4.45.65-.1 1.55-.9 1.45-7.6-.95-15.4-2.1-21.7-6.2-.7-.45-.85-1.4-.45-2.05.7-1.15 1.35-2.2 2-3.3z"
  />
  <path
    fill="#1a1400"
    opacity="0.22"
    d="M38.2 22.2c-2.6 1.1-4.9 3.1-6.5 5.8-1.8 3.1-2.5 6.6-2.1 10.1 3.8 1.6 7.8 2.5 11.9 2.8-2.2-3.6-3.1-7.9-2.5-12.1.35-2.2 1.2-4.3 2.4-6.1-.9-.3-2-.4-3.2-.5z"
  />
  <!-- X accent -->
  <path
    stroke="#b8e86a"
    stroke-width="2.2"
    stroke-linecap="round"
    opacity="0.85"
    d="M46 18l6 6M52 18l-6 6"
  />
</svg>
